<mxfile host="app.diagrams.net" agent="Mozilla/5.0 (Windows NT 10.0; Win64; x64) AppleWebKit/537.36 (KHTML, like Gecko) Chrome/128.0.0.0 Safari/537.36 OPR/114.0.0.0" version="25.0.3">
  <diagram id="C5RBs43oDa-KdzZeNtuy" name="Page-1">
    <mxGraphModel dx="837" dy="487" grid="1" gridSize="10" guides="1" tooltips="1" connect="1" arrows="1" fold="1" page="1" pageScale="1" pageWidth="827" pageHeight="1169" math="0" shadow="0">
      <root>
        <mxCell id="WIyWlLk6GJQsqaUBKTNV-0" />
        <mxCell id="WIyWlLk6GJQsqaUBKTNV-1" parent="WIyWlLk6GJQsqaUBKTNV-0" />
        <mxCell id="ICIlq7ei2oUqExQS0pTp-1" style="edgeStyle=orthogonalEdgeStyle;rounded=0;orthogonalLoop=1;jettySize=auto;html=1;" edge="1" parent="WIyWlLk6GJQsqaUBKTNV-1" source="ICIlq7ei2oUqExQS0pTp-0" target="ICIlq7ei2oUqExQS0pTp-2">
          <mxGeometry relative="1" as="geometry">
            <mxPoint x="140" y="200" as="targetPoint" />
          </mxGeometry>
        </mxCell>
        <mxCell id="ICIlq7ei2oUqExQS0pTp-0" value="START" style="strokeWidth=2;html=1;shape=mxgraph.flowchart.start_2;whiteSpace=wrap;" vertex="1" parent="WIyWlLk6GJQsqaUBKTNV-1">
          <mxGeometry x="90" y="20" width="100" height="100" as="geometry" />
        </mxCell>
        <mxCell id="ICIlq7ei2oUqExQS0pTp-3" style="edgeStyle=orthogonalEdgeStyle;rounded=0;orthogonalLoop=1;jettySize=auto;html=1;" edge="1" parent="WIyWlLk6GJQsqaUBKTNV-1" source="ICIlq7ei2oUqExQS0pTp-2">
          <mxGeometry relative="1" as="geometry">
            <mxPoint x="140" y="360" as="targetPoint" />
          </mxGeometry>
        </mxCell>
        <mxCell id="ICIlq7ei2oUqExQS0pTp-2" value="Input num" style="rounded=1;whiteSpace=wrap;html=1;absoluteArcSize=1;arcSize=14;strokeWidth=2;" vertex="1" parent="WIyWlLk6GJQsqaUBKTNV-1">
          <mxGeometry x="90" y="200" width="100" height="100" as="geometry" />
        </mxCell>
        <mxCell id="ICIlq7ei2oUqExQS0pTp-26" value="dig1= num/100" style="rounded=1;whiteSpace=wrap;html=1;absoluteArcSize=1;arcSize=14;strokeWidth=2;" vertex="1" parent="WIyWlLk6GJQsqaUBKTNV-1">
          <mxGeometry x="90" y="360" width="100" height="100" as="geometry" />
        </mxCell>
        <mxCell id="ICIlq7ei2oUqExQS0pTp-29" style="edgeStyle=orthogonalEdgeStyle;rounded=0;orthogonalLoop=1;jettySize=auto;html=1;entryX=0.5;entryY=0;entryDx=0;entryDy=0;entryPerimeter=0;" edge="1" parent="WIyWlLk6GJQsqaUBKTNV-1" source="ICIlq7ei2oUqExQS0pTp-26">
          <mxGeometry relative="1" as="geometry">
            <mxPoint x="140" y="520" as="targetPoint" />
          </mxGeometry>
        </mxCell>
        <mxCell id="ICIlq7ei2oUqExQS0pTp-48" style="edgeStyle=orthogonalEdgeStyle;rounded=0;orthogonalLoop=1;jettySize=auto;html=1;" edge="1" parent="WIyWlLk6GJQsqaUBKTNV-1" source="ICIlq7ei2oUqExQS0pTp-47" target="ICIlq7ei2oUqExQS0pTp-49">
          <mxGeometry relative="1" as="geometry">
            <mxPoint x="140" y="680" as="targetPoint" />
          </mxGeometry>
        </mxCell>
        <mxCell id="ICIlq7ei2oUqExQS0pTp-47" value="dig2= (num % 100) / 10" style="rounded=1;whiteSpace=wrap;html=1;absoluteArcSize=1;arcSize=14;strokeWidth=2;" vertex="1" parent="WIyWlLk6GJQsqaUBKTNV-1">
          <mxGeometry x="90" y="520" width="100" height="100" as="geometry" />
        </mxCell>
        <mxCell id="ICIlq7ei2oUqExQS0pTp-50" style="edgeStyle=orthogonalEdgeStyle;rounded=0;orthogonalLoop=1;jettySize=auto;html=1;" edge="1" parent="WIyWlLk6GJQsqaUBKTNV-1" source="ICIlq7ei2oUqExQS0pTp-49" target="ICIlq7ei2oUqExQS0pTp-51">
          <mxGeometry relative="1" as="geometry">
            <mxPoint x="140" y="840" as="targetPoint" />
          </mxGeometry>
        </mxCell>
        <mxCell id="ICIlq7ei2oUqExQS0pTp-49" value="dig3= num % 10" style="rounded=1;whiteSpace=wrap;html=1;absoluteArcSize=1;arcSize=14;strokeWidth=2;" vertex="1" parent="WIyWlLk6GJQsqaUBKTNV-1">
          <mxGeometry x="90" y="670" width="100" height="100" as="geometry" />
        </mxCell>
        <mxCell id="ICIlq7ei2oUqExQS0pTp-52" style="edgeStyle=orthogonalEdgeStyle;rounded=0;orthogonalLoop=1;jettySize=auto;html=1;" edge="1" parent="WIyWlLk6GJQsqaUBKTNV-1" source="ICIlq7ei2oUqExQS0pTp-51" target="ICIlq7ei2oUqExQS0pTp-53">
          <mxGeometry relative="1" as="geometry">
            <mxPoint x="280" y="880" as="targetPoint" />
          </mxGeometry>
        </mxCell>
        <mxCell id="ICIlq7ei2oUqExQS0pTp-51" value="reverse = (dig3 * 100) + (dig2 * 10) + dig1" style="rounded=1;whiteSpace=wrap;html=1;absoluteArcSize=1;arcSize=14;strokeWidth=2;" vertex="1" parent="WIyWlLk6GJQsqaUBKTNV-1">
          <mxGeometry x="90" y="830" width="100" height="100" as="geometry" />
        </mxCell>
        <mxCell id="ICIlq7ei2oUqExQS0pTp-54" style="edgeStyle=orthogonalEdgeStyle;rounded=0;orthogonalLoop=1;jettySize=auto;html=1;" edge="1" parent="WIyWlLk6GJQsqaUBKTNV-1" source="ICIlq7ei2oUqExQS0pTp-53" target="ICIlq7ei2oUqExQS0pTp-55">
          <mxGeometry relative="1" as="geometry">
            <mxPoint x="300" y="760" as="targetPoint" />
          </mxGeometry>
        </mxCell>
        <mxCell id="ICIlq7ei2oUqExQS0pTp-53" value="Print reverse" style="rounded=1;whiteSpace=wrap;html=1;absoluteArcSize=1;arcSize=14;strokeWidth=2;" vertex="1" parent="WIyWlLk6GJQsqaUBKTNV-1">
          <mxGeometry x="250" y="830" width="100" height="100" as="geometry" />
        </mxCell>
        <mxCell id="ICIlq7ei2oUqExQS0pTp-55" value="END" style="strokeWidth=2;html=1;shape=mxgraph.flowchart.start_2;whiteSpace=wrap;" vertex="1" parent="WIyWlLk6GJQsqaUBKTNV-1">
          <mxGeometry x="250" y="690" width="100" height="100" as="geometry" />
        </mxCell>
      </root>
    </mxGraphModel>
  </diagram>
</mxfile>
